<?xml version="1.0" encoding="utf-8"?>
<!-- Generator: Adobe Illustrator 24.1.3, SVG Export Plug-In . SVG Version: 6.00 Build 0)  -->
<svg version="1.1" id="Calque_1" xmlns="http://www.w3.org/2000/svg" xmlns:xlink="http://www.w3.org/1999/xlink" x="0px" y="0px"
	 viewBox="0 0 480.4 490.4" style="enable-background:new 0 0 480.4 490.4;" xml:space="preserve">
<style type="text/css">
	.st0{fill:#FFB8B8;}
	.st1{fill:#B20000;stroke:#B20000;stroke-width:6;stroke-miterlimit:10;}
	.st2{fill:#F9F9F9;}
	.st3{fill:#FF8080;}
	.st4{fill:#DB4545;}
	.st5{fill:#B20000;}
	.st6{fill:none;stroke:#B20000;stroke-width:18;stroke-linecap:round;stroke-linejoin:round;stroke-miterlimit:10;}
</style>
<path class="st0" d="M72.3,222.4v-76.8H46.8v211.3h318.3v-28.4H206C143.2,328.5,72.3,275.5,72.3,222.4z"/>
<g>
	<g>
		<path class="st1" d="M392.7,113.8h-377c-3.1,0-5.7,2.5-5.7,5.7v289.6c0,3.1,2.5,5.7,5.7,5.7h144.5v26.9h-17.3
			c-0.9,0-1.8,0.2-2.5,0.6l-15.3,7.7c-1.9,1-3.1,2.9-3.1,5.1v23c0,3.1,2.5,5.7,5.7,5.7H158c3.1,0,5.7-2.5,5.7-5.7s-2.5-5.7-5.7-5.7
			h-24.7v-13.8l11-5.5h119.9l11,5.5v13.8h-90.6c-3.1,0-5.7,2.5-5.7,5.7s2.5,5.7,5.7,5.7h96.3c3.1,0,5.7-2.5,5.7-5.7v-23
			c0-2.2-1.2-4.1-3.1-5.1l-15.3-7.7c-0.8-0.4-1.7-0.6-2.5-0.6h-17.3v-26.9h63.3c3.1,0,5.7-2.5,5.7-5.7c0-3.1-2.5-5.7-5.7-5.7h-290
			V125.1H387v278.2h-49c-3.1,0-5.7,2.5-5.7,5.7c0,3.1,2.5,5.7,5.7,5.7h54.7c3.1,0,5.7-2.5,5.7-5.7V119.5
			C398.4,116.3,395.8,113.8,392.7,113.8L392.7,113.8z M236.8,441.7h-65.2v-26.9h65.2V441.7z"/>
		<path class="st1" d="M372.3,360V145.5c0-3.1-2.5-5.7-5.7-5.7H96.8c-3.1,0-5.7,2.5-5.7,5.7c0,3.1,2.5,5.7,5.7,5.7H361v203.1H47.5
			V151.2h22.7c3.1,0,5.7-2.5,5.7-5.7c0-3.1-2.5-5.7-5.7-5.7H41.8c-3.1,0-5.7,2.5-5.7,5.7V360c0,3.1,2.5,5.7,5.7,5.7h324.8
			C369.8,365.7,372.3,363.2,372.3,360z"/>
		<path class="st1" d="M366.6,378.8h-15.3c-3.1,0-5.7,2.5-5.7,5.7c0,3.1,2.5,5.7,5.7,5.7h15.3c3.1,0,5.7-2.5,5.7-5.7
			C372.3,381.4,369.8,378.8,366.6,378.8z"/>
		<path class="st1" d="M326.8,378.8h-15.3c-3.1,0-5.7,2.5-5.7,5.7c0,3.1,2.5,5.7,5.7,5.7h15.3c3.1,0,5.7-2.5,5.7-5.7
			C332.5,381.4,329.9,378.8,326.8,378.8z"/>
		<path class="st1" d="M271.6,378.8c-3.1,0-5.7,2.5-5.7,5.7c0,3.1,2.5,5.7,5.7,5.7H287c3.1,0,5.7-2.5,5.7-5.7c0-3.1-2.5-5.7-5.7-5.7
			H271.6z"/>
	</g>
</g>
<rect x="166.5" y="76.4" class="st2" width="301.5" height="208"/>
<rect x="168.9" y="16.2" class="st3" width="296.6" height="57.1"/>
<g id="coding-2">
	<path class="st0" d="M468,76.4v192c0,8.8-7.2,16-16,16h-32c8.8,0,16-7.2,16-16v-192C436,76.4,468,76.4,468,76.4z"/>
	<path class="st4" d="M468,28.4v48h-32v-48c0-8.8-7.2-16-16-16h32C460.8,12.4,468,19.6,468,28.4z"/>
	<path class="st5" d="M428,36.4h16v16h-16V36.4z"/>
	<path class="st5" d="M396,36.4h16v16h-16V36.4z"/>
	<path class="st5" d="M364,36.4h16v16h-16V36.4z"/>
	<path class="st5" d="M270.3,126.7l-48,48c-3.1,3.1-3.1,8.2,0,11.3l48,48l11.3-11.3l-42.3-42.3l42.3-42.3L270.3,126.7z"/>
	<path class="st5" d="M361.7,126.7L350.4,138l42.3,42.3l-42.3,42.3l11.3,11.3l48-48c3.1-3.1,3.1-8.2,0-11.3L361.7,126.7z"/>
	<path class="st5" d="M284.4,249.7l48-144.1l15.2,5.1l-48,144.1L284.4,249.7z"/>
	<path class="st6" d="M453.1,284.4H178.9c-8.2,0-14.9-6.7-14.9-14.9V27.3c0-8.2,6.7-14.9,14.9-14.9h274.3c8.2,0,14.9,6.7,14.9,14.9
		v242.3C468,277.7,461.3,284.4,453.1,284.4z"/>
	<line class="st6" x1="164" y1="76.4" x2="468" y2="76.4"/>
</g>
</svg>
