<?xml version="1.0" encoding="utf-8"?>
<!-- Generator: Adobe Illustrator 24.1.3, SVG Export Plug-In . SVG Version: 6.00 Build 0)  -->
<svg version="1.1" id="Calque_1" xmlns="http://www.w3.org/2000/svg" xmlns:xlink="http://www.w3.org/1999/xlink" x="0px" y="0px"
	 viewBox="0 0 480 488" style="enable-background:new 0 0 480 488;" xml:space="preserve">
<style type="text/css">
	.st0{fill:#FF9566;}
	.st1{fill:#FFCCB3;}
	.st2{fill:#FFA683;}
	.st3{fill:#FFFFFF;}
	.st4{fill:#FF6000;}
</style>
<path class="st0" d="M8,432h272l0,0v16c0,17.7-14.3,32-32,32H40c-17.7,0-32-14.3-32-32V432L8,432z"/>
<path class="st1" d="M64,320v-64H32v176h224v-32H144C99.8,400,64,364.2,64,320z"/>
<path class="st1" d="M360,264h96c8.8,0,16,7.2,16,16v96c0,8.8-7.2,16-16,16h-96c-8.8,0-16-7.2-16-16v-96
	C344,271.2,351.2,264,360,264z"/>
<circle class="st2" cx="408" cy="328" r="24"/>
<circle class="st3" cx="416" cy="320" r="8"/>
<circle class="st0" cx="200" cy="72" r="64"/>
<path class="st1" d="M184,96V48l48,24L184,96z"/>
<path class="st1" d="M368,56V16h-8c-8.8,0-16,7.2-16,16v96c0,8.8,7.2,16,16,16h96c8.8,0,16-7.2,16-16v-8h-40
	C396.7,120,368,91.3,368,56z"/>
<path class="st1" d="M32,144V88H8v128h96v-24H80C53.5,192,32,170.5,32,144z"/>
<path class="st0" d="M136.5,337.3l27.7-16l0,0l32,55.4c4.4,7.7,1.8,17.4-5.9,21.9c-7.7,4.4-17.4,1.8-21.9-5.9L136.5,337.3
	L136.5,337.3z"/>
<path class="st1" d="M306,294.9l-136.7,51.2l-40-69.3L242,184L306,294.9z"/>
<path class="st2" d="M94.7,296.8l34.6-20l0,0l40,69.3l0,0l-34.6,20c-11.5,6.6-26.2,2.7-32.8-8.8l-16-27.7
	C79.3,318.1,83.2,303.4,94.7,296.8z"/>
<path class="st0" d="M72,337.6l13.9-8l0,0l16,27.7l0,0l-13.9,8c-7.7,4.4-17.4,1.8-21.9-5.9C61.7,351.8,64.3,342,72,337.6z"/>
<g>
	<path class="st4" d="M432,40h-16c-13.3,0-24,10.7-24,24v8h-8c-4.4,0-8,3.6-8,8s3.6,8,8,8h8v24c0,4.4,3.6,8,8,8s8-3.6,8-8V88h8
		c4.4,0,8-3.6,8-8s-3.6-8-8-8h-8v-8c0-4.4,3.6-8,8-8h16c4.4,0,8-3.6,8-8S436.4,40,432,40z"/>
	<path class="st4" d="M456,8h-96c-13.3,0-24,10.7-24,24v96c0,13.3,10.7,24,24,24h96c13.3,0,24-10.7,24-24V32C480,18.7,469.3,8,456,8
		z M464,128c0,4.4-3.6,8-8,8h-96c-4.4,0-8-3.6-8-8V32c0-4.4,3.6-8,8-8h96c4.4,0,8,3.6,8,8V128z"/>
	<path class="st4" d="M456,256h-96c-13.3,0-24,10.7-24,24v96c0,13.3,10.7,24,24,24h96c13.3,0,24-10.7,24-24v-96
		C480,266.7,469.3,256,456,256z M464,376c0,4.4-3.6,8-8,8h-96c-4.4,0-8-3.6-8-8v-96c0-4.4,3.6-8,8-8h96c4.4,0,8,3.6,8,8V376z"/>
	<path class="st4" d="M408,296c-17.7,0-32,14.3-32,32s14.3,32,32,32s32-14.3,32-32S425.7,296,408,296z M408,344c-8.8,0-16-7.2-16-16
		s7.2-16,16-16s16,7.2,16,16S416.8,344,408,344z"/>
	<path class="st4" d="M179.8,102.8c1.3,0.8,2.7,1.2,4.2,1.2c1.3,0,2.5-0.3,3.6-0.9l48-24c3.9-2,5.5-6.8,3.5-10.8
		c-0.8-1.5-2-2.7-3.5-3.5l-48-24c-3.9-2-8.8-0.4-10.7,3.5c-0.6,1.1-0.9,2.3-0.9,3.6v48C176,98.8,177.4,101.3,179.8,102.8z M192,61
		l22.1,11L192,83V61z"/>
	<path class="st4" d="M200,144c39.8,0,72-32.2,72-72S239.8,0,200,0s-72,32.2-72,72S160.2,144,200,144z M200,16c30.9,0,56,25.1,56,56
		s-25.1,56-56,56s-56-25.1-56-56S169.1,16,200,16z"/>
	<path class="st4" d="M280,176c2.5,0,4.9-1.2,6.4-3.2l24-32c2.6-3.5,1.9-8.6-1.6-11.2c-3.5-2.6-8.5-1.9-11.2,1.6l-24,32
		c-2.7,3.5-1.9,8.5,1.6,11.2C276.6,175.4,278.3,176,280,176z"/>
	<path class="st4" d="M297.6,204.8c1.5,2,3.9,3.2,6.4,3.2c1.7,0,3.4-0.6,4.8-1.6l32-24c3.5-2.7,4.3-7.7,1.6-11.2
		c-2.7-3.5-7.7-4.3-11.2-1.6l-32,24C295.7,196.3,294.9,201.3,297.6,204.8L297.6,204.8z"/>
	<path class="st4" d="M376,222.4c-0.8-4.3-4.9-7.2-9.3-6.5c-0.1,0-0.2,0-0.3,0.1l-40,8c-4.4,0.4-7.6,4.4-7.2,8.8
		c0.4,4.4,4.4,7.6,8.8,7.2h1.6l40-8c4.3-0.8,7.2-4.9,6.5-9.3C376,222.6,376,222.5,376,222.4z"/>
	<path class="st4" d="M8,224h96c4.4,0,8-3.6,8-8V88c0-4.4-3.6-8-8-8H8c-4.4,0-8,3.6-8,8v128C0,220.4,3.6,224,8,224z M16,96h80v112
		H16V96z"/>
	<path class="st4" d="M72,112H56c-4.4,0-8,3.6-8,8c0,4.4,3.6,8,8,8h16c4.4,0,8-3.6,8-8C80,115.6,76.4,112,72,112z"/>
	<path class="st4" d="M72,144H40c-4.4,0-8,3.6-8,8s3.6,8,8,8h32c4.4,0,8-3.6,8-8S76.4,144,72,144z"/>
	<path class="st4" d="M72,176H40c-4.4,0-8,3.6-8,8s3.6,8,8,8h32c4.4,0,8-3.6,8-8S76.4,176,72,176z"/>
	<path class="st4" d="M249,180c-1.2-2-3.2-3.4-5.5-3.8c-2.3-0.4-4.7,0.2-6.6,1.7L152,248H32c-4.4,0-8,3.6-8,8v168H8
		c-4.4,0-8,3.6-8,8v16c0,22.1,17.9,40,40,40h208c22.1,0,40-17.9,40-40v-16c0-4.4-3.6-8-8-8h-16V319.1l44.8-16.8
		c2.2-0.8,3.9-2.6,4.7-4.8c0.8-2.2,0.6-4.6-0.6-6.6L249,180z M172.7,353.4h0.6l16,27.6c1.1,1.8,1.4,4,0.8,6.1
		c-0.6,2-1.9,3.8-3.8,4.8c-3.8,2.2-8.7,0.9-10.9-2.9l-16-27.8L172.7,353.4z M158.3,343.1l-27.7,16c-3.7,2.1-8.1,2.7-12.2,1.6
		c-4.1-1.1-7.6-3.8-9.7-7.4l-16-27.7c-4.2-7.6-1.7-17.2,5.8-21.6l27.7-16l16,27.8L158.3,343.1z M83,340.5l8,13.8l-7,4
		c-1.8,1.1-4,1.4-6.1,0.8c-2-0.5-3.8-1.9-4.9-3.7c-1.1-1.8-1.4-4-0.8-6.1c0.6-2.1,1.9-3.8,3.8-4.9L83,340.5z M272,448
		c0,13.3-10.7,24-24,24h-16v-8c0-4.4-3.6-8-8-8s-8,3.6-8,8v8H72v-8c0-4.4-3.6-8-8-8s-8,3.6-8,8v8H40c-13.3,0-24-10.7-24-24v-8h256
		V448z M248,424H40V264h92.2l-7.5,6.2l-34.1,19.7c-12.6,7.3-18.6,22.2-14.7,36.2l-8,4.6c-11.5,6.6-15.5,21.3-8.9,32.8
		c3.2,5.5,8.4,9.6,14.6,11.2c2,0.5,4.1,0.8,6.2,0.8c4.2,0,8.3-1.1,12-3.2l8-4.6c4,4,8.9,6.9,14.4,8.3c2.7,0.8,5.6,1.1,8.4,1.1
		c5.6,0,11.1-1.5,16-4.3l7-4l16,27.8c6.6,11.4,21.3,15.4,32.7,8.8c11.5-6.6,15.4-21.3,8.8-32.8c0,0,0,0,0,0l-14.6-25.4l59.4-22.1
		V424z M172.8,336l-16.6-28.7l-16.6-28.8L240,196.2l54.6,94.5L172.8,336z"/>
</g>
</svg>
