<?xml version="1.0" encoding="utf-8"?>
<!-- Generator: Adobe Illustrator 24.1.3, SVG Export Plug-In . SVG Version: 6.00 Build 0)  -->
<svg version="1.1" id="Layer_5" xmlns="http://www.w3.org/2000/svg" xmlns:xlink="http://www.w3.org/1999/xlink" x="0px" y="0px"
	 viewBox="0 0 512 512" style="enable-background:new 0 0 512 512;" xml:space="preserve">
<style type="text/css">
	.st0{fill:#FF8080;}
	.st1{fill:#FFB8B8;}
	.st2{fill:#B20000;stroke:#B20000;stroke-width:3;stroke-miterlimit:10;}
	.st3{fill:#DB4545;}
	.st4{fill:#B20000;}
</style>
<g>
	<g>
		<path class="st0" d="M137.3,141.6h-28.5c-5.2,0-9.4-4.2-9.4-9.4v-18c0-5.2,4.2-9.4,9.4-9.4h28.5c5.2,0,9.4,4.2,9.4,9.4v18
			C146.7,137.4,142.5,141.6,137.3,141.6z"/>
		<path class="st1" d="M39,69.9c-6.7,0-12.1-5.4-12.1-12.1V35.1h24.2v22.6C51.1,64.4,45.7,69.9,39,69.9L39,69.9z"/>
		<path class="st1" d="M207.2,69.9c6.7,0,12.1-5.4,12.1-12.1V35.1h-24.2v22.6C195.1,64.4,200.5,69.9,207.2,69.9L207.2,69.9z"/>
		<g>
			<path class="st1" d="M195.1,42.2h-144v14.1H72c9.4,0,17.7,5.8,21,14.6c3.4,9.2,12.2,15.3,22,15.3h16.3c9.8,0,18.6-6.1,22-15.3
				c3.3-8.8,11.6-14.6,21-14.6h20.9L195.1,42.2L195.1,42.2z"/>
		</g>
	</g>
	<g>
		<path class="st2" d="M239.4,13.7h-28.5V7.3c0-1.9-1.6-3.5-3.5-3.5c-1.9,0-3.5,1.6-3.5,3.5v6.4h-28.5c-1.9,0-3.5,1.6-3.5,3.5
			s1.6,3.5,3.5,3.5h28.5v10.7h-8.6c-1.9,0-3.5,1.6-3.5,3.5v3.6H96.9c-1.9,0-3.5,1.6-3.5,3.5s1.6,3.5,3.5,3.5h94.8v7.1h-17.4
			c-10.8,0-20.6,6.8-24.3,16.9c-2.9,7.8-10.4,13-18.7,13h-16.3c-8.3,0-15.8-5.2-18.7-13c-3.8-10.1-13.5-16.9-24.3-16.9H54.5v-7.1
			h28.4c1.9,0,3.5-1.6,3.5-3.5s-1.6-3.5-3.5-3.5H54.5V35c0-1.9-1.6-3.5-3.5-3.5h-8.6V20.8h28.5c1.9,0,3.5-1.6,3.5-3.5
			c0-1.9-1.6-3.5-3.5-3.5H42.3V7.3c0-1.9-1.6-3.5-3.5-3.5s-3.5,1.6-3.5,3.5v6.4H6.8c-1.9,0-3.5,1.6-3.5,3.5c0,1.9,1.6,3.5,3.5,3.5
			h28.5v10.7h-8.6c-1.9,0-3.5,1.6-3.5,3.5v22.7c0,8.6,7,15.7,15.7,15.7c7.9,0,14.5-5.9,15.5-13.5h17.6c7.9,0,15,5,17.8,12.3
			c0.4,1,0.8,1.9,1.3,2.8c1.1,2,2.9,4.5,4.1,5.9c5,5.5,12.3,8.9,20,8.9h4.6v11.6h-10.8c-7.1,0-12.9,5.8-12.9,12.9v18
			c0,7.1,5.8,12.9,12.9,12.9h7.5c1.9,0,3.5-1.6,3.5-3.5s-1.6-3.5-3.5-3.5h-7.5c-3.2,0-5.9-2.6-5.9-5.9v-18c0-3.2,2.6-5.9,5.9-5.9
			h28.6c3.2,0,5.9,2.6,5.9,5.9v18c0,3.2-2.6,5.9-5.9,5.9h-7c-1.9,0-3.5,1.6-3.5,3.5s1.6,3.5,3.5,3.5h7c7.1,0,12.9-5.8,12.9-12.9v-18
			c0-7.1-5.8-12.9-12.9-12.9h-10.8V89.8h4.6c7.7,0,15-3.4,20-8.9c1.8-1.9,2.8-3.4,4.1-5.9c0.5-0.9,0.9-1.9,1.3-2.8
			c2.7-7.4,9.9-12.3,17.8-12.3h17.6c1.1,7.6,7.6,13.5,15.5,13.5c8.6,0,15.7-7,15.7-15.7V35c0-1.9-1.6-3.5-3.5-3.5h-8.6V20.8h28.5
			c1.9,0,3.5-1.6,3.5-3.5C242.9,15.3,241.3,13.7,239.4,13.7L239.4,13.7z M47.4,57.7c0,4.8-3.9,8.6-8.6,8.6c-4.8,0-8.6-3.9-8.6-8.6
			V38.5h17.3V57.7z M216,57.7c0,4.8-3.9,8.6-8.6,8.6c-4.8,0-8.6-3.9-8.6-8.6V38.5H216L216,57.7z"/>
	</g>
</g>
<g>
	<path class="st1" d="M489.7,102.6H355.4c-8.1,0-14.5,7.1-14.5,15.8v28.5c0,8.8,6.5,15.8,14.5,15.8h134.2c8.1,0,14.5-7.1,14.5-15.8
		v-28.5C504.2,109.6,497.6,102.6,489.7,102.6z"/>
	<g>
		<g>
			<path class="st1" d="M221,155.2c0,2.7,0.8,5.4,2.1,7.4H206c-8.2,0-15-6.8-15-15v-30c0-8.2,6.8-15,15-15h16.9l0.1,0.1
				c-1.2,2.2-2,4.7-2,7.4V155.2z"/>
		</g>
		<g>
			<path class="st0" d="M221,155.3v-44.9c0-2.7,0.8-5.3,2-7.4c2.6-4.5,7.4-7.6,13-7.6h11.9l0.1,15.9c0.2,19.6,15.9,35.5,35.6,35.8
				l57.3,0.8v7.4c0,8.2-6.8,15-15,15h-15H251h-15c-5.5,0-10.3-3-12.9-7.4C221.8,160.7,221,158.1,221,155.3z"/>
		</g>
		<g>
			<path class="st0" d="M250.9,170.4h59.9v62.2h-59.9v-48.1V170.4z"/>
		</g>
		<g>
			<path class="st0" d="M310.9,295H251v-44.9h59.9V295z"/>
		</g>
		<g>
			<path class="st1" d="M236,247.5c0-4.2,3.4-7.4,7.4-7.4h7.4h59.9h7.4c4.2,0,7.4,3.4,7.4,7.4v15c0,4.2-3.4,7.4-7.4,7.4h-7.4h-59.9
				h-7.4c-4.2,0-7.4-3.4-7.4-7.4v-7.4L236,247.5L236,247.5z"/>
		</g>
		<g>
			<path class="st3" d="M415.7,463.4l-44.9-18.7V324.9l44.9-18.7v18.7v30v30v30v30V463.4z"/>
		</g>
		<g>
			<path class="st1" d="M415.7,306.2v157.2l44.9,18.7l4.4,18.4h40.2V269.7h-44.6v17.7L415.7,306.2z"/>
		</g>
		<path class="st0" d="M340.8,295h-30h-59.9H108.7c-29,0-52.4,23.4-52.4,52.4v74.9c0,29,23.4,52.4,52.4,52.4h232.1
			c16.5,0,30-13.4,30-30V324.9C370.8,308.3,357.3,295,340.8,295z M146.1,414.8H86.2v-59.9h59.9V414.8z M310.9,414.8H221v-59.9h89.9
			V414.8z"/>
		<path class="st1" d="M333.3,324.9H116.1c-16.5,0-30,13.4-30,30H146v59.9H86.1c0,16.5,13.4,30,30,30h217.1c4.2,0,7.4-3.4,7.4-7.4
			V332.5C340.8,328.3,337.4,324.9,333.3,324.9z M310.9,414.8H221v-59.9h89.9V414.8z"/>
	</g>
	<g>
		<path class="st4" d="M47.8,347.3v74.9c0,33.1,26.8,59.9,59.9,59.9h232.1c17,0,31.2-11.4,35.8-26.9l76.5,31.9v2.5
			c0,12.4,10.1,22.4,22.4,22.4h15c12.4,0,22.4-10.1,22.4-22.4V280c0-12.4-10.1-22.4-22.4-22.4h-15c-12.4,0-22.4,10.1-22.4,22.4v2.5
			l-76.5,32c-4.6-15.5-18.8-26.9-35.8-26.9h-22.4v-10c8.2,0,15-6.8,15-15v-15c0-8.2-6.8-15-15-15v-54.9h7.4c8,0,15-4.2,18.9-10.5
			c3.3,1.9,7,3,11.1,3h119.8c20.7,0,37.4-16.8,37.4-37.4s-16.8-37.4-37.4-37.4H354.8c-4.1,0-7.8,1.1-11.1,3
			c-3.9-6.2-10.9-10.5-18.9-10.5H235c-6.7,0-12.6,2.8-16.6,7.4h-13.2c-12.4,0-22.4,10.1-22.4,22.4v30c0,12.4,10.1,22.4,22.4,22.4
			h13.2c4.2,4.6,10,7.4,16.6,7.4h7.4v15H220c-20.7,0-37.4,11.8-37.4,32.4v6c0,20.7,16.8,31.4,37.4,31.4h7.4c0,8.2,6.8,15,15,15v10
			H107.7C74.6,287.4,47.8,314.4,47.8,347.3z M422.1,392.3h30v15h-30V392.3z M422.1,362.3h30v15h-30V362.3z M422.1,332.4h30v15h-30
			V332.4z M452.1,437.2h-30v-15h30V437.2z M407.2,452.2l-30-12.5V329.9l30-12.5V452.2z M452.1,298.7v18.7h-30v-6.2L452.1,298.7z
			 M467.1,280c0-4.2,3.4-7.4,7.4-7.4h15c4.2,0,7.4,3.4,7.4,7.4v209.7c0,4.2-3.4,7.4-7.4,7.4h-15c-4.2,0-7.4-3.4-7.4-7.4V280z
			 M452.1,470.9l-30-12.5v-6.2h30V470.9z M242.4,207.7v24.9c-8.2,0-15,6.8-15,15H220c-12.4,0-22.4-4.1-22.4-16.4v-6
			c0-12.4,10.1-17.4,22.4-17.4H242.4z M212.5,110.3v44.9h-7.4c-4.2,0-7.4-3.4-7.4-7.4v-30c0-4.2,3.4-7.4,7.4-7.4
			C205.1,110.3,212.5,110.3,212.5,110.3z M380.3,132.8l15.7-15.7l15.7,15.7l-15.7,15.7L380.3,132.8z M369.8,122.3l-11.9-11.9h23.8
			L369.8,122.3z M410.3,110.3H434l-11.9,11.9L410.3,110.3z M463.9,132.8l-15.7,15.7l-15.5-15.7l15.7-15.7L463.9,132.8z M434,155.2
			h-23.8l11.9-11.9L434,155.2z M381.6,155.2h-23.8l11.9-11.9L381.6,155.2z M347.2,144.7v-23.8l11.9,11.9L347.2,144.7z M474.6,110.3
			c3.5,0,6.8,0.9,9.6,2.3l-9.6,9.6l-11.9-11.9H474.6z M485.2,132.8l9.6-9.6c1.4,3,2.3,6.1,2.3,9.6c0,3.5-0.9,6.8-2.3,9.6
			L485.2,132.8z M474.6,155.2h-11.9l11.9-11.9l9.6,9.6C481.3,154.4,478.1,155.2,474.6,155.2z M324.8,162.8H235
			c-4.2,0-7.4-3.4-7.4-7.4v-44.9c0-4.2,3.4-7.4,7.4-7.4h89.8c4.2,0,7.4,3.4,7.4,7.4v7.4v30v7.4C332.3,159.4,328.9,162.8,324.8,162.8
			z M302.3,232.7h-44.9v-54.9h44.9V232.7z M317.3,262.5h-74.9v-15h74.9V262.5z M302.3,287.4h-44.9v-10h44.9V287.4z M62.8,347.3
			c0-24.9,20.1-44.9,44.9-44.9h232.1c12.4,0,22.4,10.1,22.4,22.4v119.8c0,12.4-10.1,22.4-22.4,22.4H107.7
			c-24.9,0-44.9-20.1-44.9-44.9L62.8,347.3L62.8,347.3z"/>
	</g>
</g>
</svg>
