<?xml version="1.0" encoding="utf-8"?>
<!-- Generator: Adobe Illustrator 24.1.3, SVG Export Plug-In . SVG Version: 6.00 Build 0)  -->
<svg version="1.1" id="Layer_5" xmlns="http://www.w3.org/2000/svg" xmlns:xlink="http://www.w3.org/1999/xlink" x="0px" y="0px"
	 viewBox="0 0 512 512" style="enable-background:new 0 0 512 512;" xml:space="preserve">
<style type="text/css">
	.st0{fill:#FFCCB3;}
	.st1{fill:#FF9566;}
	.st2{fill:#FFA683;}
	.st3{fill:#FF6000;}
</style>
<path class="st0" d="M477.1,27.5H339.4c-8.3,0-14.9,6.7-14.9,14.9v27c0,8.3,6.7,14.9,14.9,14.9h137.7c8.3,0,14.9-6.7,14.9-14.9v-27
	C492,34.2,485.3,27.5,477.1,27.5z"/>
<g>
	<g>
		<g>
			<path class="st0" d="M192,80c0,2.9,0.8,5.7,2.2,8H176c-8.8,0-16-7.2-16-16V40c0-8.8,7.2-16,16-16h18l0.1,0.1
				c-1.3,2.3-2.1,5-2.1,7.9V80z"/>
		</g>
		<g>
			<path class="st1" d="M192,80V32c0-2.9,0.8-5.6,2.1-7.9c2.8-4.8,8-8.1,13.9-8.1h12.7l0.1,17c0.2,20.9,17,37.9,38,38.2L320,72v8
				c0,8.8-7.2,16-16,16h-16h-64h-16c-5.9,0-11-3.2-13.8-8C192.8,85.7,192,82.9,192,80z"/>
		</g>
		<g>
			<path class="st1" d="M224,96h64v96h-64v-64V96z"/>
		</g>
		<g>
			<path class="st1" d="M288,272h-64v-48h64V272z"/>
		</g>
		<g>
			<path class="st0" d="M208,200c0-4.4,3.6-8,8-8h8h64h8c4.4,0,8,3.6,8,8v16c0,4.4-3.6,8-8,8h-8h-64h-8c-4.4,0-8-3.6-8-8v-8V200z"/>
		</g>
		<g>
			<path class="st2" d="M400,452l-48-20V304l48-20v20v32v32v32v32V452z"/>
		</g>
		<g>
			<path class="st0" d="M400,284v168l48,20l4.7,19.6h42.9V245H448v19L400,284z"/>
		</g>
		<path class="st1" d="M320,272h-32h-64H72c-31,0-56,25-56,56v80c0,31,25,56,56,56h248c17.7,0,32-14.3,32-32V304
			C352,286.3,337.7,272,320,272z M112,400H48v-64h64V400z M288,400h-96v-64h96V400z"/>
		<path class="st0" d="M312,304H80c-17.7,0-32,14.3-32,32h64v64H48c0,17.7,14.3,32,32,32h232c4.4,0,8-3.6,8-8V312
			C320,307.6,316.4,304,312,304z M288,400h-96v-64h96V400z"/>
	</g>
	<g>
		<path class="st3" d="M8,328v80c0,35.3,28.7,64,64,64h248c18.1,0,33.3-12.2,38.2-28.8l81.8,34.1v2.7c0,13.2,10.8,24,24,24h16
			c13.2,0,24-10.8,24-24V256c0-13.2-10.8-24-24-24h-16c-13.2,0-24,10.8-24,24v2.7l-81.8,34.1c-4.9-16.6-20.1-28.8-38.2-28.8h-24v-32
			c8.8,0,16-7.2,16-16v-16c0-8.8-7.2-16-16-16v-80h8c8.5,0,16-4.5,20.2-11.2c3.5,2,7.5,3.2,11.8,3.2h128c22.1,0,40-17.9,40-40
			s-17.9-40-40-40H336c-4.3,0-8.3,1.2-11.8,3.2C320,12.5,312.5,8,304,8h-96c-7.1,0-13.4,3.1-17.8,8H176c-13.2,0-24,10.8-24,24v32
			c0,13.2,10.8,24,24,24h14.2c4.4,4.9,10.7,8,17.8,8h8v16h-24c-22.1,0-40,17.9-40,40v16c0,22.1,17.9,40,40,40h8c0,8.8,7.2,16,16,16
			v32H72C36.7,264,8,292.7,8,328z M408,376h32v16h-32V376z M408,344h32v16h-32V344z M408,312h32v16h-32V312z M440,424h-32v-16h32
			V424z M392,440l-32-13.3V309.3l32-13.3V440z M440,276v20h-32v-6.7L440,276z M456,256c0-4.4,3.6-8,8-8h16c4.4,0,8,3.6,8,8v224
			c0,4.4-3.6,8-8,8h-16c-4.4,0-8-3.6-8-8V256z M440,460l-32-13.3V440h32V460z M216,136v48c-8.8,0-16,7.2-16,16h-8
			c-13.2,0-24-10.8-24-24v-16c0-13.2,10.8-24,24-24H216z M184,32v48h-8c-4.4,0-8-3.6-8-8V40c0-4.4,3.6-8,8-8H184z M363.3,56
			L380,39.3L396.7,56L380,72.7L363.3,56z M352,44.7L339.3,32h25.4L352,44.7z M395.3,32h25.4L408,44.7L395.3,32z M452.7,56L436,72.7
			L419.3,56L436,39.3L452.7,56z M420.7,80h-25.4L408,67.3L420.7,80z M364.7,80h-25.4L352,67.3L364.7,80z M328,68.7V43.3L340.7,56
			L328,68.7z M464,32c3.7,0,7.2,0.9,10.3,2.4L464,44.7L451.3,32H464z M475.3,56l10.3-10.3c1.5,3.1,2.4,6.6,2.4,10.3
			s-0.9,7.2-2.4,10.3L475.3,56z M464,80h-12.7L464,67.3l10.3,10.3C471.2,79.1,467.7,80,464,80z M304,88h-96c-4.4,0-8-3.6-8-8V32
			c0-4.4,3.6-8,8-8h96c4.4,0,8,3.6,8,8v8v32v8C312,84.4,308.4,88,304,88z M280,184h-48v-80h48V184z M296,216h-80l0-16h80V216z
			 M280,264h-48v-32h48V264z M24,328c0-26.5,21.5-48,48-48h248c13.2,0,24,10.8,24,24v128c0,13.2-10.8,24-24,24H72
			c-26.5,0-48-21.5-48-48V328z"/>
	</g>
</g>
</svg>
