<?xml version="1.0" encoding="utf-8"?>
<!-- Generator: Adobe Illustrator 24.0.1, SVG Export Plug-In . SVG Version: 6.00 Build 0)  -->
<svg version="1.1" id="Calque_1" xmlns="http://www.w3.org/2000/svg" xmlns:xlink="http://www.w3.org/1999/xlink" x="0px" y="0px"
	 viewBox="0 0 784.3 783.1" style="enable-background:new 0 0 784.3 783.1;" xml:space="preserve">
<style type="text/css">
	.st0{fill:none;stroke:#000000;stroke-miterlimit:10;}
	.st1{fill:none;stroke:#FF0000;stroke-miterlimit:10;}
	.st2{fill:#F1F1F1;}
	.st3{fill:#0085A1;}
	.st4{fill:#E2E2E2;}
	.st5{fill:#B20000;}
</style>
<image style="display:none;overflow:visible;enable-background:new    ;" width="302" height="302" xlink:href="12D1E8AABDC3022.png"  transform="matrix(2.7416 0 0 2.7416 -30.4235 -13.0648)">
</image>
<g>
	<rect x="-936.8" y="-1195.7" class="st0" width="70.3" height="70.3"/>
	<rect x="-1007.1" y="-1125.4" class="st0" width="140.5" height="140.5"/>
	<rect x="-1007.1" y="-1195.7" class="st0" width="70.3" height="70.3"/>
	<rect x="-1217.9" y="-1195.7" class="st0" width="210.8" height="210.8"/>
	<rect x="-1218.1" y="-984.9" class="st0" width="351.6" height="351.6"/>
	<rect x="-1780.3" y="-1195.7" class="st0" width="562.4" height="562.4"/>
	<circle class="st1" cx="-1498.8" cy="-914.3" r="281"/>
	<circle class="st1" cx="-1042.8" cy="-809.3" r="176"/>
	<circle class="st1" cx="-1112.3" cy="-1089.8" r="105.5"/>
	<circle class="st1" cx="-936.8" cy="-1055.3" r="70"/>
	<circle class="st1" cx="-901.8" cy="-1160.3" r="35"/>
	<rect x="-1780.3" y="-2109.1" class="st0" width="913.5" height="913.5"/>
	<rect x="-3256.5" y="-2109.1" class="st0" width="1476.2" height="1476.2"/>
	<circle class="st1" cx="-1323.5" cy="-1652.3" r="456.7"/>
	<circle class="st1" cx="-2518.4" cy="-1370.9" r="738.1"/>
</g>
<g>
	<circle class="st2" cx="391.6" cy="358.9" r="69"/>
	<circle class="st3" cx="391.6" cy="358.9" r="39.9"/>
	<path class="st2" d="M391.6,782.7c-52.7,0-103.9-10.3-152.1-30.7c-46.5-19.7-88.3-47.8-124.2-83.7s-64-77.7-83.7-124.2
		C11.2,495.8,0.9,444.7,0.9,391.9c0-52.7,10.3-103.9,30.7-152.1c19.7-46.5,47.8-88.3,83.7-124.2s77.7-64,124.2-83.7
		c48.2-20.4,99.4-30.7,152.1-30.7c52.7,0,103.9,10.3,152.1,30.7c46.5,19.7,88.3,47.8,124.2,83.7s64,77.7,83.7,124.2
		c20.4,48.2,30.7,99.4,30.7,152.1c0,52.7-10.3,103.9-30.7,152.1c-19.7,46.5-47.8,88.3-83.7,124.2s-77.7,64-124.2,83.7
		C495.5,772.3,444.3,782.7,391.6,782.7z M391.6,71.2c-85.7,0-166.2,33.4-226.8,93.9c-60.6,60.6-93.9,141.1-93.9,226.8
		s33.4,166.2,93.9,226.8c60.6,60.6,141.1,93.9,226.8,93.9s166.2-33.4,226.8-93.9s93.9-141.1,93.9-226.8s-33.4-166.2-93.9-226.8
		C557.8,104.6,477.2,71.2,391.6,71.2z"/>
	<rect x="-66.3" y="-90.9" class="st4" width="78" height="78"/>
	<rect x="27.7" y="-94.9" class="st5" width="81" height="81"/>
	<path class="st2" d="M585.9,391.9c0-107.3-87-194.3-194.3-194.3s-194.3,87-194.3,194.3c0,91.7,63.5,168.5,148.9,189
		c-0.3,2-0.4,4-0.4,6c0,25.3,20.5,45.8,45.8,45.8s45.8-20.5,45.8-45.8c0-2-0.1-4-0.4-6C522.4,560.5,585.9,483.6,585.9,391.9z
		 M391.6,613.2c-14.5,0-26.3-11.8-26.3-26.3c0-14.5,11.8-26.3,26.3-26.3s26.3,11.8,26.3,26.3C417.9,601.5,406.1,613.2,391.6,613.2z
		 M391.6,530.9c-76.7,0-138.9-62.2-138.9-138.9S314.8,253,391.6,253s138.9,62.2,138.9,138.9S468.3,530.9,391.6,530.9z"/>
</g>
</svg>
